:SAMPLES-PER-SECOND 30
:FRAME-RANGE 1-1086
:FULLY-SPECIFIED
:DEGREES
679
root  104.458 38.5345 -27.4904 13.3577 -44.0757 -5.19025
RightUpLeg  -5.5457 -24.4827 -4.09032
RightLeg  20.877 -12.1365 -5.12999
RightFoot  -13.2313 0.192466 17.0319
RightToes  1.21801e-010 1.2921e-014 -6.02303e-014
Spine  1.16592 5.25078 10.8384
Spine1  5.03525 7.46006 -9.67847
HEad  14.8384 6.88268 2.77727
LeftShoulder1  1.20766 -5.8708 -5.61731
LeftArm  -13.3621 -35.9108 -21.1765
LeftForeArm  -25.8127 -25.5468 -6.67151
LeftHand  -0.00769869 4.76216 -4.117
RightShoulder  2.33332 9.47473 11.2078
RightArm  7.68199 54.5163 63.2513
RightForeArm  -13.8529 25.7633 6.21312
RightHand  0.311479 -12.3759 -6.05732
LeftUpLeg  -31.7473 -13.1941 16.9892
LeftLeg  19.4081 -8.61153 -3.03698
LeftFoot  -1.56989 0.878889 -10.1533
LeftToes  3.79492e-011 -8.60219e-011 1.56273e-011
680
root  104.526 38.6157 -26.7899 14.1885 -44.2155 -5.38904
RightUpLeg  -6.12668 -23.4366 -4.76846
RightLeg  21.5948 -12.2765 -5.51087
RightFoot  -11.4745 -0.0563933 18.8852
RightToes  1.21801e-010 1.2921e-014 -6.02303e-014
Spine  0.744072 4.85109 9.78536
Spine1  5.53761 7.01894 -9.44223
HEad  15.7509 6.20617 3.0414
LeftShoulder1  1.20242 -5.89069 -5.52099
LeftArm  -15.4031 -34.7493 -19.7573
LeftForeArm  -25.4137 -26.9129 -6.98447
LeftHand  -0.0117888 4.90355 -4.67516
RightShoulder  2.35375 9.34008 11.6031
RightArm  7.74025 51.636 62.3582
RightForeArm  -15.1349 31.9508 7.8303
RightHand  0.234492 -13.1441 -4.41601
LeftUpLeg  -32.0741 -11.6239 15.6687
LeftLeg  20.4519 -9.80241 -3.70129
LeftFoot  -2.03654 0.730294 -8.8128
LeftToes  3.79492e-011 -8.60219e-011 1.56273e-011
681
root  104.576 38.7489 -26.0731 15.2008 -45.4237 -6.2356
RightUpLeg  -6.41222 -21.7604 -5.23114
RightLeg  21.7492 -12.471 -5.63182
RightFoot  -9.32735 -0.401017 19.0165
RightToes  1.21801e-010 1.2921e-014 -6.02303e-014
Spine  0.409452 4.94954 9.31325
Spine1  6.18961 7.15063 -9.2645
HEad  17.4412 5.70599 3.26763
LeftShoulder1  1.16404 -5.52137 -5.64739
LeftArm  -15.896 -32.953 -18.6581
LeftForeArm  -25.2309 -29.8333 -7.71411
LeftHand  0.00244949 4.70749 -5.71867
RightShoulder  2.37472 9.15775 12.0916
RightArm  7.6885 48.5373 61.6485
RightForeArm  -15.9794 38.5004 9.82038
RightHand  0.154007 -14.0777 -2.97609
LeftUpLeg  -31.6766 -11.5807 15.2814
LeftLeg  21.1089 -8.64489 -3.34446
LeftFoot  -2.79646 0.611112 -7.948
LeftToes  3.79492e-011 -8.60219e-011 1.56273e-011
682
root  104.588 38.9195 -25.3913 16.5282 -46.6205 -7.56378
RightUpLeg  -6.56619 -20.0685 -5.00678
RightLeg  21.4147 -13.4694 -5.95447
RightFoot  -7.03716 -0.667234 16.3698
RightToes  1.21801e-010 1.2921e-014 -6.02303e-014
Spine  0.0984282 5.06183 9.06116
Spine1  6.37897 7.15933 -8.76008
HEad  19.4741 5.08134 3.88562
LeftShoulder1  1.10933 -5.02893 -5.78554
LeftArm  -15.6246 -30.1726 -17.4624
LeftForeArm  -28.1941 -33.3253 -8.79006
LeftHand  0.0157828 4.67256 -7.89461
RightShoulder  2.38059 8.75988 12.8398
RightArm  8.27636 45.4857 61.8098
RightForeArm  -16.9948 44.4508 12.0434
RightHand  0.113427 -15.3486 -2.22114
LeftUpLeg  -30.91 -10.7695 15.0371
LeftLeg  21.2874 -8.16636 -3.17288
LeftFoot  -3.38392 0.509101 -7.02296
LeftToes  3.79492e-011 -8.60219e-011 1.56273e-011
683
root  104.57 39.1002 -24.7614 17.9017 -47.5954 -8.92719
RightUpLeg  -6.49986 -18.0278 -4.48837
RightLeg  20.7627 -14.9749 -6.09788
RightFoot  -5.84405 -0.631354 12.2747
RightToes  1.21801e-010 1.2921e-014 -6.02303e-014
Spine  -0.449826 5.04073 8.95256
Spine1  6.60202 7.05914 -8.47109
HEad  21.2684 3.78236 5.02551
LeftShoulder1  1.04483 -4.4662 -5.93574
LeftArm  -15.0694 -26.2435 -15.8598
LeftForeArm  -27.4115 -38.2848 -10.2859
LeftHand  0.0550368 4.32627 -9.50748
RightShoulder  2.38642 8.31644 13.7247
RightArm  7.92477 42.2141 62.3909
RightForeArm  -15.8065 49.9576 14.4901
RightHand  0.243694 -16.5454 -3.35227
LeftUpLeg  -30.0827 -9.84187 14.8436
LeftLeg  21.1323 -7.90598 -3.03795
LeftFoot  -3.71921 0.427574 -6.08105
LeftToes  3.79492e-011 -8.60219e-011 1.56273e-011
